<svg xmlns="http://www.w3.org/2000/svg" width="40" height="40" viewBox="0 0 40 40">
  <g id="more" transform="translate(-16 -754)">
    <g id="Rectangle_5591" data-name="Rectangle 5591" transform="translate(16 754)" fill="#fff" stroke="#707070" stroke-width="1" opacity="0">
      <rect width="40" height="40" stroke="none"/>
      <rect x="0.5" y="0.5" width="39" height="39" fill="none"/>
    </g>
    <path id="Path_25568" data-name="Path 25568" d="M159.722,81.555H152.27a.72.72,0,0,0-.72.72v7.452a.72.72,0,0,0,.72.72h7.452a.72.72,0,0,0,.72-.72V82.275A.72.72,0,0,0,159.722,81.555ZM159,89.007H152.99V83H159Zm12.241-7.452h-7.452a.72.72,0,0,0-.72.72v7.452a.72.72,0,0,0,.72.72h7.452a.72.72,0,0,0,.72-.72V82.275A.72.72,0,0,0,171.243,81.555Zm-.72,7.452h-6.012V83h6.012Zm-10.8,4.068H152.27a.72.72,0,0,0-.72.72v7.452a.72.72,0,0,0,.72.72h7.452a.72.72,0,0,0,.72-.72V93.8A.72.72,0,0,0,159.722,93.076Zm-.72,7.452H152.99V94.516H159Zm12.241-7.452h-7.452a.72.72,0,0,0-.72.72v7.452a.72.72,0,0,0,.72.72h7.452a.72.72,0,0,0,.72-.72V93.8A.72.72,0,0,0,171.243,93.076Zm-.72,7.452h-6.012V94.516h6.012Z" transform="translate(-125.55 682.445)" fill="#bfbfbf"/>
  </g>
</svg>
